<?xml version="1.0" encoding="UTF-8"?>
<svg width="20px" height="25px" viewBox="0 0 20 25" version="1.1" xmlns="http://www.w3.org/2000/svg" role="img">
    <title>Chevron Down</title>
    <g id="Funds" stroke="none" stroke-width="1" fill="none" fill-rule="evenodd">
        <g id="Desktop-|-My-Pension-|-MP-92-|-Funds-|-01-|-DC+AVC" transform="translate(-230.000000, -967.000000)" fill="#035597" fill-rule="nonzero">
            <path d="M230.001959,979.566709 C230.012782,979.704604 230.053639,979.838158 230.121455,979.957319 L236.591843,991.542683 C236.749238,991.825246 237.039912,991.999505 237.354672,992 L249.118996,992 C249.433973,991.999478 249.724799,991.824956 249.882093,991.542073 C250.039387,991.25919 250.039296,990.910844 249.881855,990.628049 L243.668812,979.5 L249.881855,968.371951 C250.039296,968.089156 250.039387,967.74081 249.882093,967.457927 C249.724799,967.175044 249.433973,967.000522 249.118996,967 L237.354672,967 C237.039912,967.000495 236.749238,967.174754 236.591843,967.457317 L230.121455,979.042685 C230.031805,979.200974 229.990169,979.383562 230.001959,979.566709 L230.001959,979.566709 Z M231.904488,979.500002 L237.860186,968.829268 L247.593308,968.829268 L241.885779,979.042685 C241.728185,979.325678 241.728185,979.674325 241.885779,979.957319 L247.593308,990.170732 L237.860186,990.170732 L231.904488,979.500002 Z" id="Shape" transform="translate(240.000000, 979.500000) rotate(-180.000000) translate(-240.000000, -979.500000) "></path>
        </g>
    </g>
</svg>
