﻿<svg xmlns="http://www.w3.org/2000/svg" width="24" height="20" viewBox="0 0 24 20" role="img">
  <title>Hide Icon</title>
  <g fill="#4A4A4A" fill-rule="evenodd">
    <path d="M22.004 9.406c.164.258.246.54.246.844 0 .305-.082.586-.246.844a11.253 11.253 0 0 1-4.113 4.078c-1.758 1.031-3.68 1.547-5.766 1.547s-4.008-.516-5.766-1.547a11.253 11.253 0 0 1-4.113-4.078A1.541 1.541 0 0 1 2 10.25c0-.305.082-.586.246-.844A11.253 11.253 0 0 1 6.36 5.328c1.758-1.031 3.68-1.547 5.766-1.547s4.008.516 5.766 1.547a11.253 11.253 0 0 1 4.113 4.078zm-9.879 5.625c.867 0 1.664-.217 2.39-.65a4.95 4.95 0 0 0 1.74-1.74c.434-.727.651-1.524.651-2.391s-.217-1.664-.65-2.39a4.95 4.95 0 0 0-1.74-1.74 4.579 4.579 0 0 0-2.391-.651c-.867 0-1.664.217-2.39.65a4.95 4.95 0 0 0-1.74 1.74 4.579 4.579 0 0 0-.651 2.391c0 .867.217 1.664.65 2.39a4.95 4.95 0 0 0 1.74 1.74c.727.434 1.524.651 2.391.651zm3.656-4.781c0 1.008-.357 1.87-1.072 2.584a3.522 3.522 0 0 1-2.584 1.072 3.522 3.522 0 0 1-2.584-1.072 3.522 3.522 0 0 1-1.072-2.584c0-.61.14-1.184.422-1.723 0 .422.146.78.44 1.073.292.293.65.44 1.071.44.422 0 .78-.147 1.073-.44.293-.293.439-.65.439-1.073 0-.422-.146-.779-.44-1.072a1.459 1.459 0 0 0-1.072-.44 3.671 3.671 0 0 1 1.723-.421c1.008 0 1.87.357 2.584 1.072a3.522 3.522 0 0 1 1.072 2.584z" />
    <path stroke="#FFF" d="M1.14 17.216L21.628 1.208l1.232 1.576L2.372 18.792z" />
  </g>
</svg>
