<svg width="78px" height="78px" viewBox="0 0 78 78" version="1.1" xmlns="http://www.w3.org/2000/svg" xmlns:xlink="http://www.w3.org/1999/xlink" role="img">
    <title>Placeholder</title>
    <!-- Generator: Sketch 62 (91390) - https://sketch.com -->
    <desc>Created with Sketch.</desc>
    <g id="reinstate-pension-performance-charts" stroke="none" stroke-width="1" fill="none" fill-rule="evenodd">
        <g id="Desktop-|-reinstate-pension-|-MP-46-|-07" transform="translate(-198.000000, -1488.000000)">
            <g id="Group-4" transform="translate(198.000000, 1488.000000)">
                <g id="Group-3" fill="#E0E8F1">
                    <rect id="Rectangle" x="0" y="0" width="78" height="78"></rect>
                </g>
                <g id="noun_Image_3079602-(1)" transform="translate(18.000000, 18.000000)" fill="#035597" fill-rule="nonzero">
                    <path d="M32.2582781,4 L22.1258278,4 L18.5231788,5.12582781 L32.5960265,5.12582781 L32.2582781,4 Z M4,19.8178808 L5.12582781,23.4205298 L5.12582781,9.34768212 L4,9.68543046 L4,19.8178808 Z M35.0728477,4 L6.92715232,4 C5.35099338,4 4,5.29470199 4,6.92715232 L4,35.0728477 C4,36.6490066 5.29470199,38 6.92715232,38 L35.0728477,38 C36.6490066,38 38,36.705298 38,35.0728477 L38,6.92715232 C38,5.35099338 36.6490066,4 35.0728477,4 Z M36.8741722,35.0728477 C36.8741722,36.0860927 36.0860927,36.8741722 35.0728477,36.8741722 L6.92715232,36.8741722 C5.91390728,36.8741722 5.12582781,36.0860927 5.12582781,35.0728477 L5.12582781,6.92715232 C5.12582781,5.91390728 5.91390728,5.12582781 6.92715232,5.12582781 L35.0728477,5.12582781 C36.0860927,5.12582781 36.8741722,5.91390728 36.8741722,6.92715232 L36.8741722,35.0728477 Z M4,9.74172185 L4,19.8741722 L5.12582781,23.4768212 L5.12582781,9.40397351 L4,9.74172185 Z M32.2582781,4 L22.1258278,4 L18.5231788,5.12582781 L32.5960265,5.12582781 L32.2582781,4 Z" id="Shape"></path>
                    <path d="M23.4729647,37.2180477 L19.792273,38.3682638 L12.1433357,40.7837177 C11.1656519,41.0712718 10.1304574,40.5536745 9.84290338,39.5759908 L9.49783854,38.3682638 L9.15277369,37.2180477 L7.94504674,37.2180477 L8.29011158,38.3682638 L8.80770885,39.9210556 C9.32530611,41.4738474 10.9931195,42.3365095 12.5459113,41.8764231 L23.7030079,38.3682638 L27.3836996,37.2180477 L23.4729647,37.2180477 L23.4729647,37.2180477 Z M41.8764231,29.5115995 L38.3682638,18.3545029 L37.2180477,14.6738112 L37.2180477,18.5270353 L38.3682638,22.207727 L40.7837177,29.8566643 C41.0712718,30.8343481 40.5536745,31.8695426 39.5759908,32.1570966 L38.3682638,32.5021615 L37.2180477,32.8472263 L37.2180477,34.0549533 L38.3682638,33.7098884 L39.9210556,33.1922912 C41.4738474,32.7322047 42.3365095,31.0643913 41.8764231,29.5115995 Z M7.36993866,31.6394994 L7.08238463,30.7768372 L6.96736301,30.3742616 L6.62229817,30.7768372 L5.87465767,30.7768372 L6.21972252,31.9270534 L7.42744947,31.9270534 L7.36993866,31.6394994 Z M33.7098884,3.63173619 L33.1922912,2.07894439 C32.6746939,0.526152593 31.0068805,-0.336509517 29.4540887,0.123576941 L18.2969921,3.63173619 L14.6163004,4.78195233 L18.4695245,4.78195233 L22.1502161,3.63173619 L29.7991535,1.21628228 C30.7768372,0.928728244 31.8120318,1.44632551 32.0995858,2.42400923 L32.5021615,3.63173619 L32.8472263,4.78195233 L34.0549533,4.78195233 L33.7098884,3.63173619 Z M2.07894439,8.75019804 C0.526152593,9.26779531 -0.336509517,10.9356087 0.123576941,12.4884005 L3.63173619,23.6454971 L4.78195233,27.3261888 L4.78195233,23.4729647 L3.63173619,19.792273 L1.21628228,12.1433357 C0.928728244,11.1656519 1.44632551,10.1304574 2.42400923,9.84290338 L3.63173619,9.44032773 L4.78195233,9.09526288 L4.78195233,7.88753593 L3.63173619,8.23260077 L2.07894439,8.75019804 Z" id="Shape"></path>
                    <path d="M21,24.9202128 L20.1699605,25.6808511 L19.8932806,25.3297872 L17.9011858,22.8138298 C17.56917,22.4042553 17.0711462,22.1702128 16.5731225,22.1702128 C16.0750988,22.1702128 15.5770751,22.4042553 15.2450593,22.8138298 L8.60474308,31.0638298 L7.88537549,31.9414894 L7.83003953,32 L7,31.2393617 L7.16600791,31.0638298 L7.49802372,30.6542553 L14.3596838,22.0531915 C14.9130435,21.3510638 15.687747,21 16.5731225,21 C17.4031621,21 18.2332016,21.4095745 18.7865613,22.0531915 L20.6126482,24.3351064 L21,24.9202128 Z" id="Path"></path>
                    <path d="M34.0693431,31 L26.9525547,20.8082192 C26.6240876,20.3150685 26.1313869,20.0958904 25.5291971,20.0958904 L25.5291971,20.0958904 C24.9817518,20.0958904 24.4343066,20.369863 24.1058394,20.8082192 L21.3686131,24.6986301 L23.9416058,27.7671233 L23.120438,28.4794521 L20,24.7534247 L23.229927,20.2054795 C23.7773723,19.4383562 24.5985401,19 25.5291971,19 C25.5291971,19 25.5291971,19 25.5291971,19 C26.459854,19 27.3357664,19.4383562 27.8284672,20.2054795 L35,30.3972603 L34.0693431,31 Z" id="Path"></path>
                    <rect id="Rectangle" x="5" y="31" width="33" height="1"></rect>
                    <path d="M14.924378,12.0673336 C14.5869094,10.609955 13.4057692,9.37678836 11.9434051,9.09652323 C10.4247962,8.76020507 8.84994262,9.32073534 7.89378149,10.4978489 C7.10635467,11.4507504 6.82513081,12.6839169 7.10635467,13.9170835 C7.44382331,15.4305153 8.62496353,16.6076288 10.0873276,16.8878939 C10.3685515,16.943947 10.7060201,17 10.987244,17 C12.224629,17 13.3495244,16.4394697 14.1369512,15.4865683 C14.8681333,14.5336668 15.1493571,13.3005002 14.924378,12.0673336 Z M13.2370349,14.813932 C12.5620976,15.6547274 11.4372021,16.0470985 10.3123067,15.8228864 C9.24365602,15.5986743 8.39998444,14.7578789 8.17500535,13.6928714 C7.95002626,12.796023 8.17500535,11.8991746 8.73745307,11.2265382 C9.29990079,10.5539019 10.0873276,10.1615307 10.987244,10.1615307 C11.2122231,10.1615307 11.4372021,10.1615307 11.6621812,10.2175838 C12.7308319,10.4417959 13.5745035,11.3386443 13.7994826,12.3475988 C13.9682169,13.2444472 13.7994826,14.1412956 13.2370349,14.813932 Z" id="Shape"></path>
                </g>
            </g>
        </g>
    </g>
</svg>