<svg width="20" height="20" viewBox="0 0 20 20" xmlns="http://www.w3.org/2000/svg" role="img">
    <title>Tick</title>
    <path fill="#a1cf55" fill-rule="evenodd" d="M19.687 10.5a9.39 9.39 0 0 1-1.308 4.844 9.789 9.789 0 0 1-3.535 3.535A9.39 9.39 0 0 1 10 20.187a9.39 9.39 0 0 1-4.844-1.308 9.789 9.789 0 0 1-3.535-3.535A9.39 9.39 0 0 1 .312 10.5a9.39 9.39 0 0 1 1.31-4.844 9.789 9.789 0 0 1 3.534-3.535A9.39 9.39 0 0 1 10 .813a9.39 9.39 0 0 1 4.844 1.308 9.789 9.789 0 0 1 3.535 3.535 9.39 9.39 0 0 1 1.308 4.844zm-10.82 5.117l7.188-7.187A.52.52 0 0 0 16.25 8a.52.52 0 0 0-.195-.43l-.86-.898a.617.617 0 0 0-.449-.195.617.617 0 0 0-.45.195l-5.859 5.86-2.734-2.735a.617.617 0 0 0-.45-.195.617.617 0 0 0-.448.195l-.86.898a.52.52 0 0 0-.195.43.52.52 0 0 0 .195.43l4.063 4.062a.52.52 0 0 0 .43.196.52.52 0 0 0 .43-.196z"/>
</svg>