<svg xmlns="http://www.w3.org/2000/svg" width="20" height="22" viewBox="0 0 20 22" role="img">
    <title>Switch Account</title>
    <path fill="#FFF" fill-rule="nonzero" d="M4.611.079a.725.725 0 1 0-.236 1.405l1.448.552C2.39 3.572 0 6.998 0 10.966c0 4.746 3.363 8.773 7.912 9.656.258.05.524-.04.696-.237a.722.722 0 0 0 .138-.717.731.731 0 0 0-.56-.474c-3.858-.749-6.723-4.16-6.723-8.228 0-3.335 1.967-6.205 4.81-7.54l-.587 1.171a.721.721 0 0 0 .043.726.735.735 0 0 0 1.268-.076L8.46 2.346a.72.72 0 0 0-.396-1.005L4.894.13A.738.738 0 0 0 4.61.08zm7.333 1.209a.73.73 0 0 0-.756.66.727.727 0 0 0 .626.783c3.858.749 6.723 4.167 6.723 8.235 0 3.337-1.971 6.206-4.817 7.54l.594-1.17a.72.72 0 0 0-.029-.732.734.734 0 0 0-.657-.334.732.732 0 0 0-.625.416l-1.463 2.9a.72.72 0 0 0 .396.998l3.17 1.209a.737.737 0 0 0 .76-.084.722.722 0 0 0-.241-1.268l-1.44-.552C17.612 18.353 20 14.931 20 10.966c0-4.745-3.363-8.78-7.912-9.663a.738.738 0 0 0-.144-.015zM10 4.68c-1.608 0-2.927 1.308-2.927 2.901 0 .811.345 1.55.892 2.078-1.942.759-3.33 2.565-3.33 4.692 0 .4.327.725.73.725H8.78a.733.733 0 0 0 .643-.36.72.72 0 0 0 0-.73.733.733 0 0 0-.643-.36H6.174c.355-1.65 1.912-2.902 3.826-2.902 1.914 0 3.47 1.252 3.826 2.902H11.22a.733.733 0 0 0-.643.36.72.72 0 0 0 0 .73.733.733 0 0 0 .643.36h3.414a.729.729 0 0 0 .732-.725c0-2.127-1.389-3.933-3.33-4.692a2.89 2.89 0 0 0 .89-2.078c0-1.593-1.318-2.9-2.926-2.9zm0 1.45c.817 0 1.463.642 1.463 1.451 0 .81-.646 1.451-1.463 1.451-.817 0-1.463-.64-1.463-1.45 0-.81.646-1.451 1.463-1.451z"/>
</svg>
