<svg width="20" height="20" viewBox="0 0 20 20" xmlns="http://www.w3.org/2000/svg" role="img">
    <title>Cross</title>
    <path fill="#dc3545" fill-rule="evenodd" d="M10 .813a9.39 9.39 0 0 1 4.844 1.308 9.789 9.789 0 0 1 3.535 3.535 9.39 9.39 0 0 1 1.308 4.844 9.39 9.39 0 0 1-1.308 4.844 9.789 9.789 0 0 1-3.535 3.535A9.39 9.39 0 0 1 10 20.187a9.39 9.39 0 0 1-4.844-1.308 9.789 9.789 0 0 1-3.535-3.535A9.39 9.39 0 0 1 .312 10.5a9.39 9.39 0 0 1 1.31-4.844 9.789 9.789 0 0 1 3.534-3.535A9.39 9.39 0 0 1 10 .813zm4.766 12.226L12.187 10.5l2.579-2.539a.544.544 0 0 0 .117-.332.544.544 0 0 0-.117-.332l-1.563-1.563a.422.422 0 0 0-.312-.117c-.13 0-.248.04-.352.117L10 8.313 7.46 5.734a.544.544 0 0 0-.331-.117.544.544 0 0 0-.332.117L5.234 7.297a.422.422 0 0 0-.117.312c0 .13.04.248.117.352L7.812 10.5l-2.578 2.54a.544.544 0 0 0-.117.331c0 .117.04.228.117.332l1.563 1.563a.422.422 0 0 0 .312.117c.13 0 .248-.04.352-.117L10 12.688l2.539 2.578a.544.544 0 0 0 .332.117c.117 0 .228-.04.332-.117l1.563-1.563a.422.422 0 0 0 .117-.312c0-.13-.04-.248-.117-.352z"/>
</svg>