<svg xmlns="http://www.w3.org/2000/svg" width="31" height="31" viewBox="0 0 31 31" role="img">
    <title>Exclamation</title>
    <path fill="#E81B22" fill-rule="evenodd" d="M30.516 15.275c0 2.704-.677 5.207-2.029 7.508a15.173 15.173 0 0 1-5.48 5.48c-2.3 1.352-4.803 2.028-7.507 2.028-2.704 0-5.207-.676-7.508-2.029a15.173 15.173 0 0 1-5.48-5.48C1.16 20.483.485 17.98.485 15.276c0-2.704.676-5.207 2.029-7.508a15.173 15.173 0 0 1 5.48-5.48C10.292.937 12.795.26 15.5.26c2.704 0 5.207.677 7.508 2.029a15.173 15.173 0 0 1 5.48 5.48c1.351 2.3 2.028 4.803 2.028 7.507zM15.5 18.302c-.767 0-1.423.273-1.968.818a2.682 2.682 0 0 0-.817 1.968c0 .766.272 1.422.817 1.967.545.545 1.201.818 1.968.818.767 0 1.423-.273 1.968-.818.545-.545.817-1.2.817-1.967 0-.767-.272-1.423-.817-1.968a2.682 2.682 0 0 0-1.968-.818zm-2.664-9.99l.484 8.235c0 .161.07.312.212.454a.7.7 0 0 0 .515.212h2.906a.7.7 0 0 0 .515-.212c.141-.142.212-.293.212-.454l.484-8.235c0-.242-.07-.434-.212-.575a.7.7 0 0 0-.515-.212h-3.875a.7.7 0 0 0-.514.212c-.141.141-.212.333-.212.575z"/>
</svg>
