<svg xmlns="http://www.w3.org/2000/svg" width="20" height="20" viewBox="0 0 20 20" role="img">
    <title>Warning</title>
    <path fill="#FFF" fill-rule="evenodd" d="M19.687 10.5a9.39 9.39 0 0 1-1.308 4.844 9.789 9.789 0 0 1-3.535 3.535A9.39 9.39 0 0 1 10 20.187a9.39 9.39 0 0 1-4.844-1.308 9.789 9.789 0 0 1-3.535-3.535A9.39 9.39 0 0 1 .312 10.5a9.39 9.39 0 0 1 1.31-4.844 9.789 9.789 0 0 1 3.534-3.535A9.39 9.39 0 0 1 10 .813a9.39 9.39 0 0 1 4.844 1.308 9.789 9.789 0 0 1 3.535 3.535 9.39 9.39 0 0 1 1.308 4.844zM10 12.453a1.73 1.73 0 0 0-1.27.527 1.73 1.73 0 0 0-.527 1.27c0 .495.176.918.527 1.27a1.73 1.73 0 0 0 1.27.527 1.73 1.73 0 0 0 1.27-.527 1.73 1.73 0 0 0 .527-1.27 1.73 1.73 0 0 0-.527-1.27 1.73 1.73 0 0 0-1.27-.527zM8.281 6.008l.313 5.312a.41.41 0 0 0 .136.293.452.452 0 0 0 .332.137h1.875c.13 0 .241-.046.333-.137a.41.41 0 0 0 .136-.293l.313-5.312a.501.501 0 0 0-.137-.371.452.452 0 0 0-.332-.137h-2.5c-.13 0-.24.046-.332.137a.501.501 0 0 0-.137.37z"/>
</svg>
